<?xml version="1.0" standalone="no"?><!DOCTYPE svg PUBLIC "-//W3C//DTD SVG 1.1//EN" "http://www.w3.org/Graphics/SVG/1.1/DTD/svg11.dtd"><svg t="1708437019932" class="icon" viewBox="0 0 1024 1024" version="1.1" xmlns="http://www.w3.org/2000/svg" p-id="6691" xmlns:xlink="http://www.w3.org/1999/xlink" width="200" height="200"><path d="M817.429333 832c-7.466667-44.181333-18.752-100.266667-28.416-146.453333-5.354667-25.6-10.282667-48.405333-13.845333-64.789334l-0.853333-3.968A306.901333 306.901333 0 0 0 853.333333 410.773333C853.333333 240.490667 711.786667 106.666667 541.866667 106.666667h-10.901334l-0.96 0.042666c-168.106667 7.530667-303.061333 145.002667-301.269333 314.112v28.565334l-70.826667 205.290666 95.722667 24.533334v55.104c0 64.64 54.186667 112.938667 115.669333 112.938666h79.146667L468.330667 896h92.138666l-54.613333-134.08h-136.533333c-18.176 0-30.336-13.824-30.336-27.605333v-121.344l-70.186667-17.984 45.290667-131.306667v-43.562667C312.682667 298.730667 409.536 197.973333 532.928 192h8.96C667.264 192 768 290.218667 768 410.773333c0 61.696-24.96 119.210667-69.76 161.941334l-17.450667 16.64 5.248 23.552 1.536 6.890666a7429.333333 7429.333333 0 0 1 17.898667 83.221334c8.618667 41.173333 18.282667 89.109333 25.344 128.981333h86.613333zM0 0h213.333333v85.333333H85.333333v128H0V0zM0 1024h213.333333v-85.333333H85.333333v-128H0v213.333333zM1024 0H810.666667v85.333333h128v128h85.333333V0zM1024 1024H810.666667v-85.333333h128v-128h85.333333v213.333333z" fill="#0A0A0A" p-id="6692"></path></svg>